<svg xmlns="http://www.w3.org/2000/svg" viewBox="0 0 154.65 134.23"><defs><style>.cls-1{fill:#9dd6cb;}.cls-2{fill:#1a3460;}</style></defs><title>logo</title><g id="Layer_2" data-name="Layer 2"><g id="Layer_1-2" data-name="Layer 1"><g id="Layer_2-2" data-name="Layer 2"><g id="full-rgb"><g id="logoMark"><path id="logoMark_PathItem_" data-name="logoMark PathItem " class="cls-1" d="M140.42,50.9c-2.36-.11-4.71-.16-7.09-.16a151,151,0,0,0-25.64,2.2A147.66,147.66,0,0,0,88,57.74,145.3,145.3,0,0,0,58.6,70.83a148.76,148.76,0,0,0-42.49,37.41c-1.7,2.2-3.28,4.4-4.84,6.61h-.44L8,119.71H8a149.85,149.85,0,0,0-8,14.52H22a131.09,131.09,0,0,1,9.55-14.17c1.38-1.78,2.81-3.52,4.4-5.24A128.06,128.06,0,0,1,87.67,78.43c-1.54,1.6-3,3.3-4.4,5a91.24,91.24,0,0,0-21.06,50.79H82.54a102.87,102.87,0,0,1,3.06-16.5c.35-1,.68-1.94,1.08-2.88h-.27a102.7,102.7,0,0,1,25.82-43c1.34-1.34,2.75-2.66,4.18-3.94a103.75,103.75,0,0,1,24.42-16.31l1.35-.59Z"/><path id="logoMark_PathItem_2" data-name="logoMark PathItem 2" class="cls-2" d="M107.69,52.92,77.13,0,10.83,114.85h.48c1.56-2.21,3.15-4.41,4.84-6.61A148.9,148.9,0,0,1,58.64,70.83l18.49-32,11,18.94A147.73,147.73,0,0,1,107.69,52.92Z"/><path id="logoMark_PathItem_3" data-name="logoMark PathItem 3" class="cls-2" d="M121.62,77l-3.47-6-1.81-3.08c-1.43,1.27-2.84,2.59-4.18,3.94a103.32,103.32,0,0,0-9.57,11l3,5.19,15.4,26.8H86.68c-.4,1-.73,1.92-1.08,2.89a102.9,102.9,0,0,0-3.06,16.52h72.11Z"/></g></g></g></g></g></svg>